<?xml version="1.0" encoding="UTF-8"?>
<svg id="Capa_1" data-name="Capa 1" xmlns="http://www.w3.org/2000/svg" viewBox="0 0 718.07 552.35">
  <defs>
    <style>
      .cls-1 {
        fill: #21a24c;
      }
    </style>
  </defs>
  <path class="cls-1" d="M372.34,552.35c0-7.4,0-13.07,0-18.74,0-148.38,.02-296.77-.13-445.15,0-5.65,1.63-9.35,5.99-12.99C430.48,31.78,491.4,9.28,558.43,2.08c51.23-5.5,101.46,.05,150.72,15.11,6.19,1.89,8.93,4.1,8.92,11.45-.27,153.78-.22,307.57,0,461.35,.01,7.76-1.79,8.42-8.94,6.46-102.86-28.27-202.32-21.38-297.28,29.74-13.45,7.24-25.79,16.24-39.52,26.17Z"/>
  <path class="cls-1" d="M345.56,551.56C238.73,476.67,123.53,463.82,1.06,498.15c-1.51-3.37-.78-6.81-.78-10.14C.24,335.62,.34,183.24,0,30.85c-.02-8.81,2.62-11.97,10.79-14.28C128.68-16.7,237.84-.74,337.05,73.29c6.24,4.66,8.76,9.62,8.74,17.64-.28,150.4-.22,300.8-.23,451.19,0,2.83,0,5.66,0,9.44Z"/>
</svg>