<?xml version="1.0" encoding="UTF-8"?>
<svg id="Capa_1" data-name="Capa 1" xmlns="http://www.w3.org/2000/svg" viewBox="0 0 810.02 810.61">
  <defs>
    <style>
      .cls-1 {
        fill: #1d1d1b;
      }
    </style>
  </defs>
  <path class="cls-1" d="M799.44,365.87c-14.09-23.71-35.84-34.3-62.75-35.17-15.08-.49-28.93-8.79-33.16-22.01-4.1-12.82-9.97-24.78-15.51-36.93-3.41-7.48-6.23-15.2-6.57-23.48-.42-10.48,4.59-18.65,11.57-26.08,13-13.82,20.84-30.11,21.02-49.31,.22-23.62-9.62-42.91-27.26-58.22-16.7-14.49-36.22-20.81-58.25-17.87-16.47,2.2-30.31,10.1-42.22,21.49-5.63,5.38-11.94,9.19-19.89,10.05-9.07,.98-17.31-1.89-25.42-5.24-12.21-5.04-23.67-11.81-36.47-15.52-13.96-4.05-21.94-13.68-24.56-27.73-.97-5.23-.91-10.63-1.58-15.93-7.05-55.7-65.18-77.76-109.15-55.17-24.91,12.8-36.99,34.7-38.21,62.21-.66,14.88-5.03,26.9-18.81,33.83-17.92,9.01-37.21,14.76-55.65,22.62-12.15,5.18-24.04-.61-33.66-9.79-25.01-23.87-58.72-28.4-87.41-11.9-27.4,15.76-42.74,45.41-38.84,75.5,2.13,16.38,9.78,30.19,21.09,41.93,9.49,9.85,12.91,20.97,9.23,34.27-1.47,5.33-3.43,10.45-5.67,15.47-4.71,10.57-10.31,20.74-13.64,31.94-4.78,16.11-17.56,25.5-34.45,25.78-38.46,.62-67.21,26.07-72.46,64.15-6.34,46.01,26.83,84.23,73.39,84.65,12.13,.11,21.83,4.88,28.55,15.29,3.01,4.66,5.26,9.65,7.29,14.77,4.49,11.31,7.35,23.26,13.39,33.96,8.69,15.42,6.59,30.83-5.87,43.6-28.52,29.23-28.29,76.05,.52,104.98,28.41,28.54,75.32,29.08,104.22,.94,10.76-10.48,22.9-13.66,37.21-9.23,4.13,1.28,8.15,2.79,12.1,4.5,10.9,4.72,21.3,10.6,32.77,13.98,16.47,4.85,26.08,17.53,26.2,34.52,.28,41.02,33.33,73.88,74.29,73.85,9.98,.32,19.54-1.74,28.66-5.61,28.17-11.94,45.81-39.03,45.85-69.99,.02-10.94,4.17-19.86,13.21-26.36,5.74-4.13,12.12-6.93,18.68-9.38,10.57-3.94,21.61-6.69,31.49-12.36,15.66-9,30.98-7.16,44.05,5.37,16.37,15.7,35.85,23.19,58.46,21.02,30.85-2.96,52.67-19.07,63.45-48.05,10.69-28.75,4.53-54.95-15.97-77.72-3.4-3.78-6.71-7.61-8.65-12.35-4.24-10.37-4.02-20.52,1.68-30.41,6.65-11.54,9.99-24.46,14.86-36.73,7.19-18.12,18.75-28.78,39.74-28.92,19.37-.13,36.64-7.79,49.95-22.34,22.37-24.46,26.12-62.31,9.14-90.87Zm-394.39,198.08c-87.29,.03-157.2-70.07-158.98-155.25-1.89-90.41,70.92-162.88,159.29-162.54,87.33,.34,156.15,70.01,158.44,154.36,2.48,91.36-71.39,163.61-158.74,163.43Z"/>
</svg>