<?xml version="1.0" encoding="UTF-8"?>
<svg id="Capa_1" data-name="Capa 1" xmlns="http://www.w3.org/2000/svg" viewBox="0 0 696.2 624">
  <defs>
    <style>
      .cls-1 {
        fill: #1d1d1b;
      }
    </style>
  </defs>
  <path class="cls-1" d="M348.3,624c-4,0-7.94-1.23-11.83-3.72-115.62-73.74-199.05-147.63-262.59-232.52C36.42,337.69,14.56,291.69,5.13,243.01-9.72,166.47,7.71,102.4,56.92,52.56,97.88,11.1,150.41-5.93,212.93,1.87c57.05,7.13,101.55,34.32,135.43,82.9,10.61-14.54,21.9-27.08,34.19-38.01C423.58,10.23,477.81-6.09,531.42,2.05c55.27,8.35,104.37,41.91,134.7,92.09,34,56.24,39.2,119.03,15.45,186.62-19.87,56.48-53.4,107.72-108.74,166.13-54.84,57.89-120,111.13-211.27,172.6-4.45,3-8.88,4.5-13.26,4.5ZM184.58,28.8c-42.36,0-78.34,14.72-107.2,43.96-42.15,42.68-56.97,98.12-44.04,164.79,8.59,44.27,28.78,86.53,63.56,132.99,60.73,81.16,140.69,152.17,251.43,223.21,88.24-59.63,150.99-111.02,203.65-166.61,52.42-55.34,84.03-103.43,102.49-155.92,21.06-59.93,16.84-112.98-12.92-162.2-25.9-42.85-67.6-71.48-114.41-78.55-45.1-6.86-90.85,6.96-125.47,37.76-15.18,13.5-28.72,29.97-41.44,50.36l-12.63,20.28-12-20.65c-30.35-52.27-71.63-80.99-126.23-87.82-8.49-1.07-16.75-1.59-24.79-1.59Z"/>
</svg>