<?xml version="1.0" encoding="UTF-8"?>
<svg id="Capa_1" data-name="Capa 1" xmlns="http://www.w3.org/2000/svg" viewBox="0 0 672.42 599.59">
  <defs>
    <style>
      .cls-1 {
        fill: #21a24c;
      }
    </style>
  </defs>
  <path class="cls-1" d="M336.05,97.32c12.93-20.76,27.17-38.57,44.39-53.89,80.1-71.29,204.34-53.65,263.62,44.41,34.08,56.36,35.62,114.99,14.29,175.67-22.16,63.03-61.38,114.69-106.38,162.2-62.87,66.37-135.07,121.08-210.38,171.8-3.18,2.14-5.54,3.07-9.41,.59-98.8-63.02-189.49-135.55-260.68-230.68C40.11,325.46,15.01,279.89,4.86,227.55c-13.09-67.49-.62-129.39,48.28-178.91C92.73,8.54,142.58-5.19,198.17,1.77c61.6,7.71,106.04,40.72,137.88,95.55Z"/>
</svg>