<?xml version="1.0" encoding="UTF-8"?>
<svg id="Capa_1" data-name="Capa 1" xmlns="http://www.w3.org/2000/svg" viewBox="0 0 758.83 634.1">
  <defs>
    <style>
      .cls-1 {
        fill: #1d1d1b;
      }
    </style>
  </defs>
  <path class="cls-1" d="M81.8,634.1c-29.3,0-55.22-14.61-70.04-39.19-14.9-24.7-15.69-54.48-2.09-79.64,10.68-19.77,22.53-39.12,33.99-57.82,5.07-8.27,10.13-16.54,15.11-24.86l16.37-27.32c17.6-29.41,35.19-58.82,52.96-88.14-28.04-46.61-55.57-92.52-83.09-138.42L13.09,125.47C-11.36,84.7,.38,34.16,39.84,10.41,65.1-4.78,91.6-.19,109.35,4.56c34.15,9.17,66.44,23.36,97.66,37.09l2.57,1.12c66.89,29.38,133.67,59.03,200.45,88.7,103.55,45.99,210.66,93.56,316.43,139.23,16.04,6.93,27.38,19.79,31.08,35.3,3.58,14.9-.35,30.63-10.76,43.15-6.4,7.69-14.33,11.69-19.74,14.03-115.75,50.27-239.84,104.94-379.34,167.11l-38.06,17.06c-50.33,22.6-102.37,45.96-154.66,66.77-20.95,8.34-47.02,18.71-72.28,19.98h-.9ZM78.34,28.9c-9,0-16.56,2.09-23.57,6.3-25.57,15.39-32.97,48.51-16.86,75.37l31.93,53.25c27.86,46.47,55.71,92.95,83.7,139.35,5.67,9.43,5.72,18.44,.14,27.59-18.02,29.69-35.86,59.53-53.71,89.35l-16.37,27.33c-5.02,8.41-10.13,16.76-15.25,25.11-11.26,18.37-22.91,37.37-33.21,56.46-8.68,16.04-8.14,35.09,1.41,50.92,9.64,15.97,26.63,24.82,45.3,25.21,18.37-.93,38.32-8.34,62.43-17.94,51.73-20.58,103.47-43.81,153.52-66.3l38.13-17.07c139.58-62.23,263.76-116.92,379.61-167.24,4.35-1.89,7.12-3.73,9-5.99,4.58-5.5,6.32-11.87,4.86-17.91-1.58-6.64-6.7-12.14-14.4-15.46h0c-105.91-45.72-213.07-93.32-316.71-139.34-66.74-29.65-133.47-59.29-200.34-88.64l-2.57-1.13c-30.23-13.29-61.51-27.02-93.53-35.63-8.92-2.4-16.62-3.62-23.49-3.62Z"/>
  <path class="cls-1" d="M591.69,301.29H212.48L84.04,75.03l507.65,226.26Zm-362.36-28.94h226.32L152.67,137.3l76.66,135.04Z"/>
  <path class="cls-1" d="M84.04,559.05l128.44-226.26h379.21L84.04,559.05Zm145.29-197.31l-76.66,135.04,302.97-135.04H229.33Z"/>
</svg>