<?xml version="1.0" encoding="UTF-8"?>
<svg id="Capa_1" data-name="Capa 1" xmlns="http://www.w3.org/2000/svg" viewBox="0 0 1161.06 1181.1">
  <defs>
    <style>
      .cls-1 {
        fill: #fff;
      }
    </style>
  </defs>
  <path class="cls-1" d="M621.86,34.71l-18.42-17.78c1.85,1.48,3.7,3.04,5.52,4.72,4.5,4.13,8.96,8.36,12.9,13.06Z"/>
  <path class="cls-1" d="M569.19,528.13c-2.97-1.84-5.91-3.7-7.12-6.97,2.33,2.28,4.7,4.61,7.12,6.97Z"/>
  <path class="cls-1" d="M909.57,433.4c-6.86-2.39-13.96-2.98-20.98-3.01-46.74-.25-93.49-.18-140.23-.14-14.92,.01-29.02,3.36-40.15,13.73-20.54,19.15-40.26,39.15-59.47,59.65-1.56,.49-2.9,.52-4.11,.24-2.62-.61-4.59-2.7-6.66-4.86-4.16-4.35-7.1-10.07-13.24-12.29-2.55-3.14-5.13-6.25-7.92-9.15-2.79-2.89-5.79-5.57-9.19-7.85-3.21-3.59-6.25-7.33-9.64-10.73-40.79-40.9-81.58-81.79-122.52-122.52-3.83-3.81-5.65-6.22-.89-10.9,31.64-31.19,63.1-62.58,94.5-94.02,24.42-24.44,48.67-49.05,72.99-73.59,1.87-.77,3.42-1.08,4.9-.73,1.45,.34,2.84,1.3,4.4,3.08,2.97,3.36,5.98,6.69,9.06,9.95l18.89,18.32c1.3,1.12,2.6,2.23,3.92,3.31h0c5.31,5.27,10.55,10.62,15.88,15.86,2.57,2.53,5.15,5.04,7.79,7.49,9.67,9.01,21.34,14.61,34.53,14.7,52.16,.32,104.32,.34,156.48-.08,16.75-.13,31.54-14.22,35.29-30.43,4.16-17.94-4.24-30.59-15.98-42.32-45.05-45-90.1-90-135.04-135.11-27.52-27.62-69.68-29.59-98.26-1.46-11.76,11.57-23.31,23.36-34.95,35.05-1.18,.59-2.25,.88-3.26,.88-.54,0-1.07-.08-1.59-.25-1.14-.36-2.24-1.12-3.36-2.33-2.83-3.05-5.12-6.82-9.25-8.5-1.63-1.42-3.25-2.85-4.88-4.27-1.46-2.25-3.08-4.37-4.78-6.41l-18.42-17.78s-.02-.02-.03-.02t-.02-.03h-.01c-31.04-24.76-65.96-22.22-95.6,7.25-32.35,32.16-64.68,64.33-96.96,96.55-53.54,53.43-107.16,106.77-160.51,160.4-28.56,28.72-28.85,68.07-.95,97.47,13.29,14,27.21,27.39,40.87,41.04,71.97,71.91,143.95,143.81,215.94,215.71,25.32,25.3,54.6,31.99,82.74,18.67,12.04-5.7,20.73-15.63,30.19-24.63,9.04-8.61,16.79-18.6,27.04-25.95,.22-.16,.43-.32,.66-.48,1.54,1.05,2.69,2.56,3.94,3.96,1.24,1.41,2.58,2.7,4.5,3.31,2.45,4.85,6.52,8.25,10.56,11.67,2.15,2.37,4.31,4.74,6.5,7.08,8.01,7.8,13.05,12.69,13.67,13.24h.01s0,.01,0,.01c2.61,2.21,5.31,4.28,8.17,6.18,14.09,9.39,29.66,14.23,46.76,11.69,16.22-2.4,29.87-9.99,41.44-21.62,25.98-26.15,52.14-52.12,78.14-78.23,21-21.08,41.98-42.17,62.77-63.45,21.32-21.81,9.01-55.42-13.7-63.35ZM698.65,105.24c9.46-8.24,17.69-17.73,26.74-26.38,6.7-6.4,7.03-6.49,13.66,.15,24.56,24.58,49.25,49.05,73.7,73.75,1.51,1.52,3.78,2.61,3.88,6.14-21.07-.01-42.05,.32-63.03-.24-2.12-.06-3.88-.97-5.57-2.08l-33.62-32.47c-.68-3.42-3.87-5.35-6.35-7.35-3.97-3.21-7.35-6.75-9.92-11.02,.17-.16,.34-.34,.51-.5Zm-101.81,404c-.28-.24-.52-.44-.72-.62,.2,.17,.44,.38,.72,.62Zm21.72,16.85c-1.25-.95-2.47-1.87-3.65-2.78,1.18,.9,2.4,1.83,3.65,2.78Zm-39.95,12.18c5.19,5.68,12.31,9.9,14.68,17.7-.15,.18-.31,.34-.46,.52-9.79,7.49-17.64,16.99-26.51,25.44-7.01,6.68-8.28,7.01-14.46,.22-15.35-16.88-32.4-32.03-48.46-48.18-64.94-65.3-130.17-130.31-195.29-195.44-7.83-7.83-7.43-7.52-.25-15.4,13.66-14.98,28.72-28.52,42.95-42.9,25.85-26.14,52-51.98,78-77.98,41.72-41.73,83.71-83.2,125.06-125.32,.87-1.09,1.65-2.49,2.57-3.47,.93-.5,1.89-.89,2.91-1.13,.79,.17,1.7,.68,2.78,1.69,3.99,3.31,7.13,7.56,11.54,10.39,.28,.15,.55,.29,.81,.42,.6,1.75,1.45,3.25,2.48,4.57l3.59,3.47c2.52,1.94,5.44,3.48,8.28,5.1,.39,3.98,2.99,5.78,6.51,6.66-.37,.5-.75,.99-1.14,1.47-9.33,11.95-21.66,20.9-32.15,31.68-30.2,31.03-61.17,61.29-91.79,91.9-15.51,15.51-30.76,31.28-46.61,46.45-32.12,30.73-32.63,77.44-.06,107.56,.62,.58,1.2,1.22,1.81,1.82,29.55,29.56,59.11,59.11,88.68,88.66,.04,.05,.09,.09,.13,.14,.08,.07,.15,.14,.21,.21,.08,.07,.14,.14,.21,.21,.11,.1,.22,.22,.36,.35,.2,.19,.43,.42,.69,.68,.09,.08,.17,.16,.27,.26,.17,.16,.35,.34,.55,.53,.65,.64,1.43,1.4,2.33,2.29,.43,.42,.9,.87,1.39,1.36,.16,.15,.33,.32,.5,.49,.34,.32,.69,.67,1.05,1.02,.18,.18,.36,.36,.55,.54,.35,.35,.72,.7,1.09,1.07,.22,.21,.44,.43,.66,.65,.41,.39,.82,.8,1.25,1.22,.45,.45,.92,.9,1.4,1.37,.64,.63,1.31,1.28,1.99,1.95,1.4,1.37,2.88,2.82,4.44,4.35,.62,.61,1.25,1.23,1.89,1.86,.78,.75,1.57,1.53,2.38,2.33,1.16,1.13,2.34,2.29,3.56,3.48,.05,.05,.1,.1,.15,.15,.71,.69,1.43,1.39,2.16,2.11,3.64,3.57,7.54,7.38,11.62,11.37,1.36,1.33,2.74,2.68,4.14,4.05,.66,.4,1.34,.78,2.08,1.09,.17,.07,.32,.12,.49,.18,.09,.6,.25,1.16,.45,1.68,2.33,2.28,4.7,4.61,7.12,6.97,.77,.48,1.54,.96,2.28,1.45,.07,.02,.13,.05,.2,.07,.06,.42,.16,.82,.29,1.19,1.08,3.23,4.41,4.98,6.65,7.43Zm158.68,45.67c-2.45,2.5-4.61,3.21-6.78,2.56-1.35-.41-2.71-1.33-4.14-2.69-3.89-3.68-7.04-8.35-12.57-9.97-.01,0-.03,0-.05-.01-.34-6.01-5.15-8.16-10.1-10.19,.05-1.55-.3-2.8-.91-3.86l-3.75-3.61c-.78-.52-1.58-1.02-2.37-1.54,.11-.12,.22-.25,.33-.37,.01-.01,.01-.02,.02-.03,17.04-15.52,33.12-32,49.1-48.59,3.28-3.41,6.87-4.71,11.37-4.7,15.96,.03,31.93-.11,47.89,.09,4.08,.05,8.23,.32,12.49,2.57-27.7,26.82-54.21,53.49-80.53,80.34Z"/>
  <path class="cls-1" d="M679.31,188.58c-6.64-5.76-12.89-11.93-18.89-18.32l18.89,18.32Z"/>
  <path class="cls-1" d="M685.97,642.17c-4.84-4.09-9.32-8.6-13.67-13.24,8.01,7.8,13.05,12.69,13.67,13.24Z"/>
  <path class="cls-1" d="M559.05,518.21c-3-1.82-5.37-4.44-7.83-6.91-6.05-6.05-12.11-12.1-18.16-18.15-6.02-6.02-12.05-12.04-18.07-18.07,.2,.19,.43,.42,.69,.68,.09,.08,.17,.16,.27,.26,.17,.17,.35,.35,.55,.53,.65,.64,1.43,1.4,2.33,2.29,.43,.42,.9,.87,1.39,1.36,.16,.15,.33,.32,.5,.49,.34,.32,.69,.67,1.05,1.02,.18,.18,.36,.36,.55,.54,.35,.35,.71,.71,1.09,1.07,.22,.21,.44,.43,.66,.65,.4,.39,.82,.8,1.25,1.22,.45,.45,.92,.9,1.4,1.37,.64,.63,1.3,1.28,1.99,1.95,1.4,1.37,2.88,2.82,4.44,4.35,.62,.61,1.25,1.23,1.89,1.86,.78,.75,1.57,1.53,2.38,2.33,1.16,1.13,2.34,2.29,3.56,3.48,.05,.05,.1,.1,.15,.15,.71,.69,1.43,1.39,2.16,2.11,3.64,3.57,7.54,7.38,11.62,11.37,1.36,1.33,2.74,2.68,4.14,4.05Z"/>
  <path class="cls-1" d="M580.55,92.87c-1.33-1.02-2.55-2.15-3.59-3.47l3.59,3.47Z"/>
  <path class="cls-1" d="M702.74,559.78l-3.75-3.61c1.51,1.02,2.89,2.12,3.75,3.61Z"/>
  <path class="cls-1" d="M78.07,795.48c7.87-4.42,16.86-6.64,26.95-6.64,17.17,0,31.77,7.26,43.81,21.77l33.46-30.27c-9.03-11.33-20.36-20-33.99-26.02-13.63-6.02-28.94-9.03-45.93-9.03-19.47,0-36.95,4.12-52.44,12.35-15.49,8.23-27.66,19.69-36.51,34.38-8.85,14.69-13.28,31.33-13.28,49.92s4.42,35.23,13.28,49.92c8.85,14.69,21.02,26.15,36.51,34.38,15.49,8.23,32.96,12.35,52.44,12.35,16.99,0,32.3-3.01,45.93-9.03,13.63-6.02,24.96-14.69,33.99-26.02l-33.46-30.27c-12.04,14.52-26.64,21.77-43.81,21.77-10.09,0-19.08-2.21-26.95-6.64-7.88-4.42-13.98-10.66-18.32-18.72-4.34-8.05-6.5-17.3-6.5-27.75s2.17-19.69,6.5-27.75c4.34-8.05,10.44-14.29,18.32-18.72Z"/>
  <path class="cls-1" d="M210.16,861.2c-10.45,7.53-15.67,18.1-15.67,31.73,0,8.5,2.08,16.06,6.24,22.7,4.16,6.64,10.31,11.91,18.45,15.8,8.14,3.89,17.79,5.84,28.94,5.84,21.06,0,35.22-6.99,42.48-20.98v18.59h47v-79.92c0-22.48-6.29-39.16-18.85-50.05-12.57-10.89-30.8-16.33-54.7-16.33-11.51,0-22.97,1.46-34.38,4.38-11.42,2.92-21.11,7.04-29.07,12.35l16.99,34.25c4.95-3.89,10.97-6.94,18.06-9.16,7.08-2.21,14.07-3.32,20.98-3.32,19.47,0,29.65,7.61,30.53,22.83h-28.68c-21.77,0-37.88,3.76-48.32,11.28Zm77,15v12.48c-1.95,5.49-5.14,9.65-9.56,12.48-4.43,2.83-9.56,4.25-15.4,4.25s-10.45-1.33-13.81-3.98c-3.36-2.66-5.04-6.19-5.04-10.62,0-9.73,7.34-14.6,22.04-14.6h21.77Z"/>
  <path class="cls-1" d="M558.9,838.5c3.8,4.78,5.71,12.21,5.71,22.3v74.08h50.45v-82.31c0-21.42-5.27-37.44-15.8-48.06-10.53-10.62-24.65-15.93-42.35-15.93-10.27,0-19.74,1.95-28.41,5.84-8.67,3.9-15.84,9.47-21.51,16.73-4.96-7.61-11.42-13.28-19.38-16.99-7.97-3.72-16.99-5.58-27.08-5.58-8.68,0-16.69,1.46-24.03,4.38-7.35,2.92-13.67,7.3-18.98,13.14v-15.13h-48.06v143.91h50.45v-71.42c0-10.79,2.3-18.85,6.9-24.16,4.6-5.31,10.79-7.97,18.59-7.97,14.51,0,21.77,9.82,21.77,29.47v74.08h50.45v-71.42c0-10.79,2.3-18.85,6.9-24.16,4.6-5.31,10.71-7.97,18.32-7.97,6.9,0,12.26,2.39,16.06,7.17Z"/>
  <path class="cls-1" d="M646.92,790.97v195.42h50.45v-64.25c9.91,10.09,23.27,15.13,40.09,15.13,13.1,0,25-3.05,35.71-9.16,10.71-6.11,19.2-14.78,25.49-26.02,6.28-11.24,9.43-24.3,9.43-39.16s-3.14-27.92-9.43-39.16c-6.29-11.24-14.78-19.91-25.49-26.02-10.71-6.11-22.61-9.16-35.71-9.16-18.94,0-33.1,5.58-42.48,16.73v-14.34h-48.06Zm58.15,46.86c5.66-6.11,12.92-9.16,21.77-9.16s16.1,3.05,21.77,9.16c5.66,6.11,8.5,14.47,8.5,25.09s-2.83,18.98-8.5,25.09c-5.67,6.11-12.92,9.16-21.77,9.16s-16.11-3.05-21.77-9.16c-5.67-6.11-8.5-14.47-8.5-25.09s2.83-18.98,8.5-25.09Z"/>
  <path class="cls-1" d="M934.73,919.48v15.4h48.06v-143.91h-50.45v69.3c0,11.51-2.52,20.05-7.57,25.62-5.04,5.58-11.55,8.36-19.51,8.36s-13.72-2.48-17.79-7.43c-4.07-4.95-6.11-12.83-6.11-23.63v-72.22h-50.45v80.45c0,21.95,5.53,38.41,16.59,49.39,11.06,10.98,25.89,16.46,44.47,16.46,8.32,0,16.2-1.51,23.63-4.51,7.43-3.01,13.81-7.43,19.12-13.28Z"/>
  <path class="cls-1" d="M1086.47,898.63c-3.45,1.68-9.25,2.52-17.39,2.52-8.85,0-17.79-1.19-26.82-3.58-9.03-2.39-16.82-5.62-23.37-9.69l-15.13,34.52c7.08,4.43,16.46,8.01,28.14,10.75,11.68,2.74,23.54,4.11,35.58,4.11,15.04,0,27.92-2.04,38.63-6.11,10.71-4.07,18.81-9.69,24.29-16.86,5.48-7.17,8.23-15.27,8.23-24.29,0-10.97-2.88-19.52-8.63-25.62-5.75-6.11-12.53-10.31-20.31-12.61-7.79-2.3-17.61-4.34-29.47-6.11-9.38-1.41-16.11-2.79-20.18-4.12-4.07-1.33-6.11-3.67-6.11-7.04,0-3.01,1.86-5.44,5.58-7.3,3.72-1.86,9.56-2.79,17.52-2.79,14.87,0,28.67,3.54,41.42,10.62l15.13-34.25c-6.9-3.89-15.49-6.9-25.75-9.03-10.27-2.12-20.62-3.19-31.06-3.19-14.69,0-27.31,2.08-37.83,6.24-10.53,4.16-18.54,9.82-24.03,16.99-5.49,7.17-8.23,15.36-8.23,24.56,0,11.15,2.92,19.83,8.76,26.02,5.84,6.2,12.79,10.45,20.84,12.74,8.05,2.3,17.83,4.16,29.34,5.58,9.03,1.24,15.62,2.52,19.78,3.85,4.16,1.33,6.24,3.58,6.24,6.77s-1.73,5.62-5.18,7.3Z"/>
  <path class="cls-1" d="M76.73,1040.18c7.75-4.35,16.6-6.54,26.54-6.54,16.9,0,31.28,7.15,43.14,21.44l32.94-29.8c-8.89-11.15-20.05-19.69-33.47-25.62-13.42-5.92-28.5-8.89-45.23-8.89-19.17,0-36.39,4.05-51.64,12.16-15.25,8.11-27.23,19.39-35.95,33.86-8.72,14.47-13.07,30.85-13.07,49.15s4.35,34.69,13.07,49.15c8.71,14.47,20.7,25.75,35.95,33.86,15.25,8.11,32.46,12.16,51.64,12.16,16.73,0,31.81-2.97,45.23-8.89,13.42-5.92,24.58-14.47,33.47-25.62l-32.94-29.8c-11.86,14.29-26.23,21.44-43.14,21.44-9.94,0-18.78-2.18-26.54-6.54-7.76-4.36-13.77-10.5-18.04-18.43-4.27-7.93-6.41-17.03-6.41-27.32s2.13-19.39,6.41-27.32c4.27-7.93,10.28-14.07,18.04-18.43Z"/>
  <path class="cls-1" d="M307.98,1042.66c-12.2-6.18-25.97-9.28-41.31-9.28s-29.07,3.1-41.18,9.28c-12.12,6.19-21.61,14.86-28.5,26.01-6.89,11.16-10.33,23.71-10.33,37.65s3.44,26.76,10.33,37.91c6.88,11.16,16.43,19.87,28.63,26.14,12.2,6.28,25.88,9.41,41.05,9.41s29.11-3.14,41.31-9.41c12.2-6.27,21.7-14.99,28.5-26.14,6.8-11.15,10.2-23.79,10.2-37.91s-3.4-26.71-10.2-37.78c-6.8-11.07-16.3-19.69-28.5-25.88Zm-19.87,88.63c-5.58,6.01-12.73,9.02-21.44,9.02s-15.86-3.01-21.44-9.02c-5.58-6.01-8.37-14.33-8.37-24.97s2.79-18.65,8.37-24.58c5.58-5.92,12.72-8.89,21.44-8.89s15.86,2.97,21.44,8.89c5.58,5.93,8.37,14.12,8.37,24.58s-2.79,18.95-8.37,24.97Z"/>
  <path class="cls-1" d="M461.97,1033.38c-9.07,0-17.43,1.53-25.1,4.58-7.67,3.05-14.29,7.45-19.87,13.2v-15.42h-47.32v141.7h49.67v-68.5c0-11.15,2.57-19.52,7.71-25.1,5.14-5.58,11.98-8.37,20.52-8.37,15.51,0,23.27,9.67,23.27,29.02v72.94h49.67v-81.05c0-21.09-5.36-36.86-16.08-47.32-10.72-10.46-24.88-15.69-42.48-15.69Z"/>
  <path class="cls-1" d="M643.93,1033.38c-9.07,0-17.43,1.53-25.1,4.58-7.67,3.05-14.29,7.45-19.87,13.2v-15.42h-47.32v141.7h49.67v-68.5c0-11.15,2.57-19.52,7.71-25.1,5.14-5.58,11.98-8.37,20.52-8.37,15.51,0,23.27,9.67,23.27,29.02v72.94h49.67v-81.05c0-21.09-5.36-36.86-16.08-47.32-10.72-10.46-24.88-15.69-42.48-15.69Z"/>
  <path class="cls-1" d="M842.89,1042.14c-11.5-5.84-24.31-8.76-38.43-8.76-14.82,0-28.15,3.14-40,9.41-11.85,6.27-21.14,14.95-27.84,26.01-6.71,11.07-10.06,23.58-10.06,37.52s3.44,26.76,10.33,37.91c6.88,11.16,16.6,19.87,29.15,26.14,12.55,6.28,27.1,9.41,43.66,9.41,26.49,0,46.62-7.67,60.39-23.01l-26.14-27.19c-5.06,4.36-10.07,7.5-15.03,9.41-4.97,1.92-10.85,2.88-17.65,2.88-9.06,0-16.6-1.96-22.62-5.88-6.01-3.92-10.06-9.54-12.16-16.86h103.01c.52-7.84,.78-11.94,.78-12.29,0-15.16-3.36-28.28-10.07-39.35-6.71-11.07-15.82-19.52-27.32-25.36Zm-67.19,50.85c1.39-7.49,4.66-13.42,9.8-17.78,5.14-4.35,11.54-6.54,19.22-6.54s14.07,2.18,19.22,6.54c5.14,4.36,8.41,10.29,9.8,17.78h-58.04Z"/>
  <path class="cls-1" d="M975.44,1072.86c12.37,0,21.78,6.36,28.24,19.09l38.43-19.61c-4.88-12.2-13.16-21.74-24.84-28.63-11.68-6.88-25.53-10.33-41.57-10.33s-29.72,3.1-42.09,9.28c-12.38,6.19-22.01,14.82-28.89,25.88-6.89,11.07-10.33,23.66-10.33,37.78s3.44,26.76,10.33,37.91c6.88,11.16,16.51,19.87,28.89,26.14,12.37,6.28,26.41,9.41,42.09,9.41s29.89-3.44,41.57-10.33c11.68-6.88,19.96-16.43,24.84-28.63l-38.43-19.61c-6.45,12.73-15.86,19.09-28.24,19.09-8.89,0-16.25-3.01-22.09-9.02-5.84-6.01-8.76-14.33-8.76-24.97s2.92-18.65,8.76-24.58c5.84-5.92,13.2-8.89,22.09-8.89Z"/>
  <path class="cls-1" d="M1148.77,1136.92c-4.36,2.97-9.41,4.44-15.16,4.44-4.53,0-8.15-1.44-10.85-4.31-2.7-2.88-4.05-6.84-4.05-11.9v-47.06h32.42v-37.12h-32.42v-36.86h-49.67v36.86h-20.65v37.12h20.65v47.58c0,17.95,4.97,31.46,14.9,40.52,9.94,9.06,24.14,13.59,42.62,13.59,6.8,0,13.2-.7,19.22-2.09,6.01-1.39,11.11-3.4,15.29-6.01l-12.29-34.77Z"/>
  <path class="cls-1" d="M595.34,104.63c-.37,.5-.75,.99-1.14,1.47l-13.65-13.23c2.52,1.94,5.44,3.48,8.28,5.1,.39,3.98,2.99,5.78,6.51,6.66Z"/>
  <path class="cls-1" d="M660.42,170.26l-13.46-13.03c1.45,.34,2.84,1.3,4.4,3.08,2.97,3.36,5.98,6.69,9.06,9.95Z"/>
  <path class="cls-1" d="M699.12,207.75h-.01s-19.8-19.17-19.8-19.17c1.3,1.12,2.6,2.23,3.92,3.31h0c5.31,5.27,10.55,10.62,15.88,15.86Z"/>
  <path class="cls-1" d="M576.96,89.4l-17.61-17.07c.79,.17,1.7,.68,2.78,1.69,3.99,3.31,7.13,7.56,11.54,10.39,.28,.15,.55,.29,.81,.42,.6,1.75,1.45,3.25,2.48,4.57Z"/>
  <path class="cls-1" d="M644.13,56.22c-1.14-.36-2.24-1.12-3.36-2.33-2.83-3.05-5.12-6.82-9.25-8.5-1.63-1.42-3.25-2.85-4.88-4.27-1.46-2.25-3.08-4.37-4.78-6.41l22.27,21.51Z"/>
  <path class="cls-1" d="M514.08,474.17c.04,.05,.09,.09,.13,.14-.1-.09-.15-.14-.15-.14h.02Z"/>
  <path class="cls-1" d="M571.96,530.84c-.93-.9-1.85-1.81-2.77-2.71,.77,.48,1.54,.96,2.28,1.45,.07,.02,.13,.05,.2,.07,.06,.42,.16,.82,.29,1.19Z"/>
  <path class="cls-1" d="M672.3,628.93c-6.86-6.68-15.89-15.5-26.16-25.54,.22-.16,.43-.32,.66-.48,1.54,1.05,2.69,2.56,3.94,3.96,1.24,1.41,2.58,2.7,4.5,3.31,2.45,4.85,6.52,8.25,10.56,11.67,2.15,2.37,4.31,4.74,6.5,7.08Z"/>
  <path class="cls-1" d="M562.07,521.16c-1.02-.99-2.02-1.97-3.02-2.95,.66,.4,1.34,.78,2.08,1.09,.17,.07,.32,.12,.49,.18,.09,.6,.25,1.16,.45,1.68Z"/>
  <path class="cls-1" d="M685.98,642.17h0s0,0-.01,0h.01Z"/>
  <path class="cls-1" d="M537.42,497.05c1.16,1.13,2.34,2.29,3.56,3.48-1.22-1.19-2.41-2.35-3.56-3.48Z"/>
  <path class="cls-1" d="M596.12,508.62c.2,.17,.44,.38,.72,.62-.28-.24-.52-.44-.72-.62Z"/>
  <path class="cls-1" d="M614.91,523.31c1.18,.9,2.4,1.83,3.65,2.78-1.25-.95-2.47-1.87-3.65-2.78Z"/>
  <path class="cls-1" d="M685.98,642.17h0s0,0-.01,0h.01Z"/>
  <path class="cls-1" d="M644.63,503.87c-2.62-.61-4.59-2.7-6.66-4.86-4.16-4.35-7.1-10.07-13.24-12.29-2.55-3.14-5.13-6.25-7.92-9.15-2.79-2.89-5.79-5.57-9.19-7.85-3.21-3.59-6.25-7.33-9.64-10.73l46.65,44.88Z"/>
  <path class="cls-1" d="M698.99,556.17c-.78-.52-1.58-1.02-2.37-1.54,.11-.12,.22-.25,.33-.37,.01-.01,.01-.02,.02-.03l2.02,1.94Z"/>
  <path class="cls-1" d="M730.51,586.5c-1.35-.41-2.71-1.33-4.14-2.69-3.89-3.68-7.04-8.35-12.57-9.97-.01,0-.03,0-.05-.01-.34-6.01-5.15-8.16-10.1-10.19,.05-1.55-.3-2.8-.91-3.86l27.77,26.72Z"/>
  <path class="cls-1" d="M596.12,508.62c.2,.17,.44,.38,.72,.62-.28-.24-.52-.44-.72-.62Z"/>
  <path class="cls-1" d="M614.91,523.31c1.18,.9,2.4,1.83,3.65,2.78-1.25-.95-2.47-1.87-3.65-2.78Z"/>
</svg>