<?xml version="1.0" encoding="UTF-8"?>
<svg id="Capa_1" data-name="Capa 1" xmlns="http://www.w3.org/2000/svg" viewBox="0 0 624.3 624.8">
  <defs>
    <style>
      .cls-1 {
        fill: #828383;
      }
    </style>
  </defs>
  <path class="cls-1" d="M620.94,578.67c-61.14-60.82-122.01-121.92-183.15-182.74-4.24-4.22-4.3-6.65-.88-11.41,40.94-56.99,55.48-120.3,42.29-189.14C457.51,82.07,358.18,.62,242.4,0c-14.89,.24-29.72,1.21-44.37,3.98C64.45,29.19-22.14,157.85,4.97,290.75c33.94,166.39,226.62,246.7,369.06,153.87,5.47-3.57,10.86-11.12,16.19-9.98,5.68,1.21,10.09,8.62,14.92,13.45,57.82,57.79,115.67,115.55,173.33,173.51,4.14,4.16,6.3,4.37,10.38,.02,10.35-11.01,21.03-21.73,32.07-32.06,4.55-4.26,4.45-6.49,.03-10.9ZM242.09,423.81c-100.47,.15-182.05-81.39-181.89-181.82,.15-99.92,81.92-181.45,181.9-181.4,100.07,.06,181.31,81.49,181.28,181.72-.02,100.52-80.76,181.35-181.29,181.5Z"/>
</svg>