<?xml version="1.0" encoding="UTF-8"?>
<svg id="Capa_1" data-name="Capa 1" xmlns="http://www.w3.org/2000/svg" viewBox="0 0 719.35 719.53">
  <defs>
    <style>
      .cls-1 {
        fill: #1d1d1b;
      }
    </style>
  </defs>
  <path class="cls-1" d="M698.31,60.61c-20.25-31.68-49.3-51.15-86.53-58.39-23.27-4.54-45.8-1.72-68.13,4.97-2.5,.62-5.1,.29-7.56,1.53-10.16,4.97-20.19,10.06-29.05,17.24-12.24,9.96-22.79,21.68-33.95,32.72-53.94,53.3-107.3,107.14-160.92,160.76-9.25,9.22-19.57,17.5-27,28.47-15.9,15.84-31.81,31.71-47.71,47.55-9.64,5.39-17.33,12.76-22.98,22.27-.23,.49-.45,.97-.71,1.46-9.9,5.13-17.27,12.89-22.98,22.3-1.04,1.17-2.01,2.4-3.12,3.47-45.28,45.31-90.52,90.62-135.9,135.83-3.67,3.67-5.97,7.5-6.91,12.69-4.58,24.41-9.38,48.78-14.31,73.16-9.93,49.17-19.99,98.31-30.12,147.46-1.1,5.19-.13,6.2,5.16,5,23.43-5.29,46.93-10.42,70.5-15.13,50.5-10.09,101.04-20.03,151.61-29.73,4.22-.81,7.14-2.66,9.96-5.52,30.25-30.28,60.47-60.57,90.75-90.78,16.52-16.49,33.17-32.85,49.72-49.27,9.19-5.52,16.52-12.89,22.01-22.07,.55-.52,1.1-1.04,1.66-1.56,9.15-5.55,16.49-12.89,21.97-22.1,.55-.52,1.1-1.04,1.66-1.56,3.21-.26,4.87-2.82,7.01-4.67,8.15-6.98,14.77-15.42,22.14-23.14,28.92-30.38,58.94-59.59,88.51-89.29,47.55-47.68,95.56-94.87,142.62-142.98,12.82-13.11,23.34-28.17,26.62-47.03,.06-.78,0-1.59,.23-2.34,12.5-39.31,7.89-76.73-14.22-111.3Zm-78.13,99.29c-32.98,33.46-66.38,66.51-99.61,99.74-74.62,74.62-149.24,149.24-223.89,223.86-34.7,34.73-69.43,69.43-104.06,104.22-6.36,6.39-14.8,5.42-22.53,7.08-17.3,3.6-34.63,7.14-51.93,10.84-4.09,.88-5.19-.23-4.32-4.32,3.7-17.3,7.24-34.63,10.84-51.93,.68-11.26,4.54-20.35,13.02-28.82,132.26-131.68,264.14-263.72,396.11-395.69,8.73-8.73,17.27-17.66,26.23-26.13,8.6-8.11,18.4-13.83,30.93-12.56,18.24,2.53,36.68,19.44,40.99,37.62,.23,.78,.42,1.53,.62,2.3v.1c2.99,13.57-3.28,24.44-12.4,33.69Z"/>
</svg>