<?xml version="1.0" encoding="UTF-8"?>
<svg id="Capa_1" data-name="Capa 1" xmlns="http://www.w3.org/2000/svg" viewBox="0 0 839.57 252.43">
  <defs>
    <style>
      .cls-1 {
        fill: #1d1d1b;
      }
    </style>
  </defs>
  <path class="cls-1" d="M36.11,216.73C12.04,192.94,0,162.43,0,125.26S12.04,57.9,36.11,34.75C60.18,11.59,90.52,0,127.09,0s66.92,11.59,90.99,34.75c24.07,23.15,36.11,53.31,36.11,90.51s-12.04,67.68-36.11,91.47c-24.07,23.82-54.38,35.7-90.99,35.7s-66.92-11.88-90.99-35.7Z"/>
  <path class="cls-1" d="M328.78,216.73c-24.07-23.79-36.11-54.3-36.11-91.47s12.04-67.36,36.11-90.51C352.85,11.59,383.19,0,419.77,0s66.92,11.59,90.99,34.75c24.07,23.15,36.11,53.31,36.11,90.51s-12.04,67.68-36.11,91.47c-24.07,23.82-54.38,35.7-90.99,35.7s-66.92-11.88-90.99-35.7Z"/>
  <path class="cls-1" d="M621.49,216.73c-24.07-23.79-36.11-54.3-36.11-91.47s12.04-67.36,36.11-90.51C645.56,11.59,675.9,0,712.48,0s66.92,11.59,90.99,34.75c24.07,23.15,36.11,53.31,36.11,90.51s-12.04,67.68-36.11,91.47c-24.07,23.82-54.38,35.7-90.99,35.7s-66.92-11.88-90.99-35.7Z"/>
</svg>