<?xml version="1.0" encoding="UTF-8"?>
<svg id="Capa_1" data-name="Capa 1" xmlns="http://www.w3.org/2000/svg" viewBox="0 0 687.7 588.98">
  <defs>
    <style>
      .cls-1 {
        fill: #a6a5a4;
      }
    </style>
  </defs>
  <path class="cls-1" d="M172.51,588.98l-13.43-14.04c-6.19-8.41-5.46-17.06-5.14-20.77l.05-104.45c-40.94,1.19-73.66-8.36-100.29-29.67C18.85,392.15,.93,356.08,.44,312.83-.24,253.91-.02,195.01,.36,136.08,.85,62.67,62.96,.46,136.01,.26,274.5-.06,412.99-.11,551.45,.26c73.4,.2,135.73,62.68,136.1,136.44,.21,40.72,.16,81.45,.12,122.17l-.04,50.59c0,78.16-61.14,139.66-139.19,140-67.24,.27-134.5,.2-201.75-.02-4.18-.37-5.53,.64-8.07,2.77-40.04,33.5-80.25,66.79-120.46,100.07l-45.66,36.69Zm-14.98-177.34c8.09,0,17.48,1.36,24.86,8.46,8.44,8.11,9.58,19.06,9.58,28.71v38.05s0,37.81,0,37.81l1.98-1.63c40.16-33.23,80.31-66.49,120.32-99.95,9.36-7.81,19.94-11.62,32.35-11.62h.2c67.15,.22,134.3,.32,201.45,.02,56.85-.25,101.38-45.05,101.38-102.02l.04-50.64c.04-40.65,.09-81.3-.12-121.93-.27-53.34-45.25-98.51-98.21-98.66-138.4-.35-276.82-.35-415.24,0-51.74,.15-97.44,45.99-97.77,98.09-.38,58.68-.61,117.38,.07,176.05,.36,31.77,13.13,57.29,39.02,78.04,19.81,15.83,44.1,22.5,76.68,21.29,1.11-.05,2.25-.07,3.41-.07Z"/>
</svg>