<?xml version="1.0" encoding="UTF-8"?>
<svg id="Capa_1" data-name="Capa 1" xmlns="http://www.w3.org/2000/svg" viewBox="0 0 685.74 701.64">
  <defs>
    <style>
      .cls-1 {
        fill: #a6a5a4;
      }
    </style>
  </defs>
  <path class="cls-1" d="M675.68,701.64l-27.67-137.31c-6.58-32.69-19.71-62.63-40.09-91.37-3.02-2.3-4.88-4.82-5.92-6.23-16-21.04-34.39-39.29-55-54.65-1.95-1.43-4.81-3.54-7.33-6.78-15.57-11.2-33.22-21.24-53.85-30.64-23.65-10.81-49.11-19.39-77.84-26.24-22.12-5.29-45.78-9.2-72.36-11.99-18.19-1.93-36.26-2.87-56.61-3.46,.07,17.31,.06,34.62,.04,51.93v17.88c-.01,17.75-10.18,31.21-27.26,36.25-9.99,3.71-20.83,1.78-29.34-5.54-14.44-12.36-28.74-24.92-42.8-37.76-1.78-1.61-3.14-3.29-4.19-4.97l-46.83-41.62c-15.43-13.7-30.86-27.4-46.37-41l-8.06-7.24c-4.74-4.28-9.46-8.6-14.47-12.59-5.8-2.45-9.52-6.35-11.73-8.68-7.23-6.4-13.4-11.87-19.58-17.33l-13.08-11.52c-2.77-2.4-6-5.44-8.86-9.5l-1.38-2.27c-9.54-18.62-5.4-37.78,11.08-51.33,6.06-4.82,11.61-9.84,17.16-14.86,3.81-3.41,7.6-6.85,11.49-10.19,9.1-7.79,18.05-15.75,27-23.69l48.11-42.43c2.34-2.25,4.72-3.81,7.02-4.85L221.4,8.28c10.1-8.95,23.4-10.73,36.55-4.92,13.17,5.86,21.02,17.68,21.02,31.63V107.19c10.62,.32,22.02,.91,33.38,2.05,26.22,2.6,50.27,6.87,73.54,13.03,27.15,7.17,52.75,16.86,76.08,28.76,38.33,19.56,72.67,45.84,102.08,78.16,29.1,32,52.66,68.37,71.97,111.22,17.43,38.62,30.66,81,39.33,125.96,5.34,27.67,8.51,52.4,9.67,75.56l.27,4.35c.36,5.19,.66,10.39,.28,15.63l-9.89,139.73Zm-45.05-259.98l.38,.12c-7.63-30.29-17.54-59.02-29.61-85.75-17.65-39.17-39.06-72.3-65.44-101.28-26.32-28.93-57.02-52.45-91.25-69.9-20.93-10.68-43.99-19.39-68.54-25.89-21.29-5.61-43.4-9.52-67.58-11.94-15.89-1.58-32.24-2-46.15-2.23l-8.39-.12-7.9-7c-2.25-2.57-5.91-8.14-5.04-16.62l-.11-2.55V41.66l-98.96,87.26-1.3-.2-43.73,38.62c-9.11,8.11-18.22,16.2-27.48,24.13-3.65,3.12-7.22,6.35-10.79,9.57-6.12,5.51-12.24,11.03-18.69,16.17-1.66,1.38-2.03,2.27-2.03,2.27,.09,.79,1.68,2.18,2.29,2.7l13.25,11.67c6.06,5.37,12.13,10.73,18.25,16.02,1.22,1.06,2.39,2.23,3.52,3.41l1.46,.3,3.5,2.65c6.79,5.14,13.11,10.86,19.41,16.57l7.57,6.78c15.59,13.67,31.08,27.42,46.57,41.17l57.58,51.18-.16,1.21c9.78,8.85,19.65,17.51,29.57,26.09l.23-14.37c.02-22.11,.05-44.24-.12-66.34-.06-7.24,2.18-13.15,6.66-17.56,6.74-6.63,15.11-6.43,17.85-6.33,23.65,.54,49.07,1.38,74.13,4.03,28.23,2.97,53.48,7.17,77.21,12.83,31.14,7.42,58.89,16.79,84.79,28.61,24.32,11.1,45.09,23.09,63.47,36.72l5.18,5.22c23.43,17.73,43.33,37.46,60.41,59.62ZM146.24,123.88l-.51,.42c.19-.15,.35-.3,.51-.42Z"/>
</svg>