<?xml version="1.0" encoding="UTF-8"?>
<svg id="Capa_1" data-name="Capa 1" xmlns="http://www.w3.org/2000/svg" viewBox="0 0 588.45 588.53">
  <defs>
    <style>
      .cls-1 {
        fill: #a6a5a4;
      }
    </style>
  </defs>
  <path class="cls-1" d="M294.78,0C132.91-.27,.35,131.86,0,293.81c-.35,162.88,131.01,294.16,294.88,294.72,162.03,.55,293.51-131.19,293.56-294.13C588.5,131.97,457.12,.27,294.78,0Zm129.04,164.26c26.49-.16,48.32,21.24,48.42,47.46,.09,26.23-21.49,47.66-48.06,47.72-27.06,.06-47.87-20.46-47.99-47.31-.12-26.73,20.75-47.71,47.63-47.87Zm-257.57,.03c25.76,.46,46.76,21.71,46.82,47.38,.06,26.37-21.57,47.98-47.9,47.86-26.93-.12-47.98-20.9-48.06-47.44-.08-27.35,21.45-48.29,49.14-47.8Zm304.89,219.65c-39.02,71.74-99.65,109.07-181.21,108.23-79.43-.81-148.02-48.89-178.72-123.27h13.29c112.66,0,225.33,0,337.99,.02,16.21,0,16.66,.3,8.66,15.02Z"/>
</svg>