<?xml version="1.0" encoding="UTF-8"?>
<svg id="Capa_1" data-name="Capa 1" xmlns="http://www.w3.org/2000/svg" viewBox="0 0 645.82 580.04">
  <defs>
    <style>
      .cls-1 {
        fill: #a6a5a4;
      }
    </style>
  </defs>
  <path class="cls-1" d="M323.07,580.04c-5.58,0-10.32-2-13.91-4.3-105.92-67.55-182.38-135.3-240.69-213.22C33.79,316.18,13.56,273.55,4.79,228.33-9.12,156.59,7.3,96.48,53.56,49.6,92.22,10.48,141.69-5.64,200.55,1.76c50.32,6.28,91.46,30.27,122.66,71.46,8.49-10.9,17.48-20.55,27.14-29.15C389.01,9.67,440.1-5.74,490.71,1.93c52.07,7.86,98.3,39.44,126.84,86.64,31.93,52.79,36.84,111.67,14.59,174.94-18.36,52.22-49.29,99.53-100.3,153.38-50.22,53.04-109.86,101.78-193.36,158.03-5.58,3.73-10.77,5.12-15.39,5.12ZM174.04,38.03c-36.98,0-68.33,12.83-93.45,38.28-36.93,37.39-49.89,86.12-38.51,144.8,7.64,39.36,25.69,77.07,56.81,118.66,54.28,72.55,125.62,136.15,224.14,199.74,78.16-53.04,134.18-99.06,181.23-148.73,47.15-49.77,75.54-92.92,92.05-139.88,18.56-52.79,14.89-99.45-11.25-142.7-22.69-37.51-59.13-62.56-100.02-68.72-39.33-6.08-79.22,6.08-109.44,32.96-13.39,11.89-25.37,26.48-36.63,44.56l-16.7,26.8-15.84-27.3c-26.66-45.92-62.82-71.11-110.58-77.07-7.47-.94-14.74-1.41-21.8-1.41Z"/>
</svg>